<svg preserveAspectRatio="none" overflow="visible" style="display: block;" width="139.89" height="23.0067" viewBox="0 0 139.89 23.0067" fill="none" xmlns="http://www.w3.org/2000/svg">
<g id="Positivus">
<path d="M0 22.5556V0H9.11738C10.5167 0 11.763 0.27926 12.8562 0.837779C13.9712 1.37482 14.8349 2.14815 15.4471 3.15778C16.0811 4.14593 16.3982 5.33815 16.3982 6.73445V7.15333C16.3982 8.54963 16.0702 9.75259 15.4143 10.7622C14.7802 11.7719 13.9166 12.5452 12.8234 13.0822C11.7302 13.6193 10.4948 13.8878 9.11738 13.8878H3.542V22.5556H0ZM3.542 10.73H8.75662C10.0029 10.73 10.9977 10.4078 11.7411 9.76333C12.4845 9.11889 12.8562 8.23815 12.8562 7.12111V6.79889C12.8562 5.66037 12.4845 4.76889 11.7411 4.12445C10.9977 3.48 10.0029 3.15778 8.75662 3.15778H3.542V10.73Z" fill="white"/>
<path d="M26.987 23.0067C25.3691 23.0067 23.926 22.6844 22.6579 22.04C21.4116 21.3741 20.4278 20.4289 19.7062 19.2044C18.9847 17.98 18.624 16.53 18.624 14.8544V14.3711C18.624 12.6956 18.9847 11.2563 19.7062 10.0533C20.4278 8.82889 21.4116 7.8837 22.6579 7.21778C23.926 6.55185 25.3691 6.21889 26.987 6.21889C28.605 6.21889 30.048 6.55185 31.3161 7.21778C32.5843 7.8837 33.5791 8.82889 34.3006 10.0533C35.0221 11.2563 35.3829 12.6956 35.3829 14.3711V14.8544C35.3829 16.53 35.0221 17.98 34.3006 19.2044C33.5791 20.4289 32.5843 21.3741 31.3161 22.04C30.048 22.6844 28.605 23.0067 26.987 23.0067ZM26.987 20.0422C28.4738 20.0422 29.6763 19.5804 30.5946 18.6567C31.5348 17.7115 32.0049 16.4119 32.0049 14.7578V14.4678C32.0049 12.8137 31.5457 11.5248 30.6274 10.6011C29.7091 9.65593 28.4956 9.18333 26.987 9.18333C25.5221 9.18333 24.3196 9.65593 23.3794 10.6011C22.4611 11.5248 22.002 12.8137 22.002 14.4678V14.7578C22.002 16.4119 22.4611 17.7115 23.3794 18.6567C24.3196 19.5804 25.5221 20.0422 26.987 20.0422Z" fill="white"/>
<path d="M46.2134 23.0067C44.1581 23.0067 42.4527 22.5556 41.0971 21.6533C39.7415 20.7511 38.9107 19.387 38.6046 17.5611L41.7531 16.82C41.928 17.7007 42.2231 18.3989 42.6386 18.9144C43.054 19.43 43.5678 19.7952 44.18 20.01C44.814 20.2248 45.4918 20.3322 46.2134 20.3322C47.2847 20.3322 48.1046 20.1282 48.6731 19.72C49.2634 19.3119 49.5586 18.7856 49.5586 18.1411C49.5586 17.4967 49.2853 17.0241 48.7387 16.7233C48.1921 16.4226 47.3831 16.1756 46.3117 15.9822L45.1967 15.7889C44.1035 15.5956 43.1086 15.3163 42.2122 14.9511C41.3158 14.5859 40.6052 14.0811 40.0804 13.4367C39.5557 12.7922 39.2933 11.9652 39.2933 10.9556C39.2933 9.45185 39.8618 8.29185 40.9987 7.47556C42.1357 6.63778 43.6443 6.21889 45.5246 6.21889C47.3394 6.21889 48.8261 6.62704 49.9849 7.44333C51.1656 8.23815 51.9308 9.32296 52.2807 10.6978L49.1322 11.5678C48.9354 10.6011 48.52 9.92445 47.886 9.53778C47.2519 9.12963 46.4648 8.92556 45.5246 8.92556C44.6063 8.92556 43.8848 9.09741 43.3601 9.44111C42.8353 9.76333 42.573 10.2252 42.573 10.8267C42.573 11.4711 42.8244 11.9437 43.3273 12.2444C43.852 12.5452 44.5517 12.7707 45.4262 12.9211L46.5741 13.1144C47.7329 13.3078 48.7933 13.5763 49.7554 13.92C50.7174 14.2637 51.4717 14.7578 52.0183 15.4022C52.5868 16.0467 52.871 16.9059 52.871 17.98C52.871 19.5696 52.2697 20.8048 51.0672 21.6856C49.8647 22.5663 48.2467 23.0067 46.2134 23.0067Z" fill="white"/>
<path d="M56.8194 22.5556V6.67H60.1974V22.5556H56.8194ZM58.5248 4.51111C57.8689 4.51111 57.3113 4.30704 56.8522 3.89889C56.4149 3.46926 56.1962 2.92148 56.1962 2.25556C56.1962 1.58963 56.4149 1.05259 56.8522 0.644445C57.3113 0.214815 57.8689 0 58.5248 0C59.2026 0 59.7601 0.214815 60.1974 0.644445C60.6347 1.05259 60.8533 1.58963 60.8533 2.25556C60.8533 2.92148 60.6347 3.46926 60.1974 3.89889C59.7601 4.30704 59.2026 4.51111 58.5248 4.51111Z" fill="white"/>
<path d="M71.2779 22.5556C70.2941 22.5556 69.5069 22.2656 68.9166 21.6856C68.3481 21.1056 68.0639 20.3322 68.0639 19.3656V9.47333H63.6036V6.67H68.0639V1.41778H71.4419V6.67H76.263V9.47333H71.4419V18.7856C71.4419 19.43 71.748 19.7522 72.3602 19.7522H75.7382V22.5556H71.2779Z" fill="white"/>
<path d="M80.2316 22.5556V6.67H83.6096V22.5556H80.2316ZM81.937 4.51111C81.2811 4.51111 80.7235 4.30704 80.2644 3.89889C79.8271 3.46926 79.6085 2.92148 79.6085 2.25556C79.6085 1.58963 79.8271 1.05259 80.2644 0.644445C80.7235 0.214815 81.2811 0 81.937 0C82.6148 0 83.1723 0.214815 83.6096 0.644445C84.0469 1.05259 84.2655 1.58963 84.2655 2.25556C84.2655 2.92148 84.0469 3.46926 83.6096 3.89889C83.1723 4.30704 82.6148 4.51111 81.937 4.51111Z" fill="white"/>
<path d="M92.3616 22.5556L86.9174 6.67H90.4922L94.7886 20.1067H95.3133L99.6096 6.67H103.184L97.7402 22.5556H92.3616Z" fill="white"/>
<path d="M112.661 22.8456C111.436 22.8456 110.343 22.577 109.381 22.04C108.419 21.503 107.665 20.7404 107.118 19.7522C106.572 18.7641 106.298 17.5826 106.298 16.2078V6.67H109.676V15.9822C109.676 17.357 110.026 18.3774 110.726 19.0433C111.425 19.6878 112.398 20.01 113.645 20.01C115.022 20.01 116.126 19.5589 116.957 18.6567C117.81 17.733 118.236 16.4119 118.236 14.6933V6.67H121.614V22.5556H118.302V20.1711H117.777C117.471 20.8156 116.924 21.4278 116.137 22.0078C115.35 22.5663 114.191 22.8456 112.661 22.8456Z" fill="white"/>
<path d="M133.233 23.0067C131.177 23.0067 129.472 22.5556 128.116 21.6533C126.761 20.7511 125.93 19.387 125.624 17.5611L128.772 16.82C128.947 17.7007 129.242 18.3989 129.658 18.9144C130.073 19.43 130.587 19.7952 131.199 20.01C131.833 20.2248 132.511 20.3322 133.233 20.3322C134.304 20.3322 135.124 20.1282 135.692 19.72C136.283 19.3119 136.578 18.7856 136.578 18.1411C136.578 17.4967 136.304 17.0241 135.758 16.7233C135.211 16.4226 134.402 16.1756 133.331 15.9822L132.216 15.7889C131.123 15.5956 130.128 15.3163 129.231 14.9511C128.335 14.5859 127.624 14.0811 127.1 13.4367C126.575 12.7922 126.312 11.9652 126.312 10.9556C126.312 9.45185 126.881 8.29185 128.018 7.47556C129.155 6.63778 130.663 6.21889 132.544 6.21889C134.359 6.21889 135.845 6.62704 137.004 7.44333C138.185 8.23815 138.95 9.32296 139.3 10.6978L136.151 11.5678C135.955 10.6011 135.539 9.92445 134.905 9.53778C134.271 9.12963 133.484 8.92556 132.544 8.92556C131.625 8.92556 130.904 9.09741 130.379 9.44111C129.854 9.76333 129.592 10.2252 129.592 10.8267C129.592 11.4711 129.844 11.9437 130.346 12.2444C130.871 12.5452 131.571 12.7707 132.445 12.9211L133.593 13.1144C134.752 13.3078 135.812 13.5763 136.775 13.92C137.737 14.2637 138.491 14.7578 139.037 15.4022C139.606 16.0467 139.89 16.9059 139.89 17.98C139.89 19.5696 139.289 20.8048 138.086 21.6856C136.884 22.5663 135.266 23.0067 133.233 23.0067Z" fill="white"/>
</g>
</svg>
